<svg xmlns="http://www.w3.org/2000/svg" viewBox="0 0 1400 1000">
  <!-- Title -->
  <text x="700" y="30" text-anchor="middle" font-size="26" font-weight="bold">GAIA-QAO Complete Documentation System - 95 Templates</text>
  <text x="700" y="55" text-anchor="middle" font-size="18">AMPEL360 BWB-Q100 Integrated Technical Documentation</text>
  
  <!-- Main Container -->
  <rect x="20" y="70" width="1360" height="910" fill="none" stroke="black" stroke-width="3"/>
  
  <!-- Technical Documentation Section (52 templates) -->
  <g id="tech-docs-section">
    <rect x="40" y="90" width="420" height="400" fill="#e8f5e9" stroke="#2e7d32" stroke-width="2" rx="10"/>
    <text x="250" y="120" text-anchor="middle" font-size="20" font-weight="bold">Technical Documentation (52)</text>
    
    <g font-size="13">
      <rect x="60" y="140" width="180" height="60" fill="#c8e6c9" stroke="#388e3c" rx="5"/>
      <text x="150" y="160" text-anchor="middle" font-weight="bold">Administrative (6)</text>
      <text x="70" y="180" font-size="11">Title Page, TOC, Acronyms</text>
      <text x="70" y="195" font-size="11">Rev History, Overview, Safety</text>
      
      <rect x="260" y="140" width="180" height="60" fill="#c8e6c9" stroke="#388e3c" rx="5"/>
      <text x="350" y="160" text-anchor="middle" font-weight="bold">Design/Engineering (10)</text>
      <text x="270" y="180" font-size="11">DRS, ICD, BOM, Drawings</text>
      <text x="270" y="195" font-size="11">Schematics, PCB, Materials</text>
      
      <rect x="60" y="210" width="180" height="60" fill="#c8e6c9" stroke="#388e3c" rx="5"/>
      <text x="150" y="230" text-anchor="middle" font-weight="bold">Software/Firmware (6)</text>
      <text x="70" y="250" font-size="11">SRS, SDD, API, Headers</text>
      <text x="70" y="265" font-size="11">Release Notes, Data Dict</text>
      
      <rect x="260" y="210" width="180" height="60" fill="#c8e6c9" stroke="#388e3c" rx="5"/>
      <text x="350" y="230" text-anchor="middle" font-weight="bold">Testing/Validation (4)</text>
      <text x="270" y="250" font-size="11">Test Plan, Procedures</text>
      <text x="270" y="265" font-size="11">Accept Test, Env Matrix</text>
      
      <rect x="60" y="280" width="180" height="60" fill="#c8e6c9" stroke="#388e3c" rx="5"/>
      <text x="150" y="300" text-anchor="middle" font-weight="bold">Safety/Risk (4)</text>
      <text x="70" y="320" font-size="11">FMEA/FMECA, FTA</text>
      <text x="70" y="335" font-size="11">SSA, Risk Register</text>
      
      <rect x="260" y="280" width="180" height="60" fill="#c8e6c9" stroke="#388e3c" rx="5"/>
      <text x="350" y="300" text-anchor="middle" font-weight="bold">Manufacturing (6)</text>
      <text x="270" y="320" font-size="11">MPI, Assembly, Torque</text>
      <text x="270" y="335" font-size="11">Calibration, Inspection</text>
      
      <rect x="60" y="350" width="180" height="60" fill="#c8e6c9" stroke="#388e3c" rx="5"/>
      <text x="150" y="370" text-anchor="middle" font-weight="bold">Maintenance (12)</text>
      <text x="70" y="390" font-size="11">AMM/CMM, Schedule</text>
      <text x="70" y="405" font-size="11">Service Bull, Spare Parts</text>
      
      <rect x="260" y="350" width="180" height="60" fill="#c8e6c9" stroke="#388e3c" rx="5"/>
      <text x="350" y="370" text-anchor="middle" font-weight="bold">Training/EOL (4)</text>
      <text x="270" y="390" font-size="11">Quick Start, Training</text>
      <text x="270" y="405" font-size="11">Disposal, Data Index</text>
    </g>
    
    <rect x="60" y="430" width="380" height="40" fill="#a5d6a7" stroke="#388e3c" rx="5"/>
    <text x="250" y="455" text-anchor="middle" font-size="14" font-weight="bold">52 Total Templates</text>
  </g>
  
  <!-- Repair Documentation Section (23 templates) -->
  <g id="repair-docs-section">
    <rect x="490" y="90" width="420" height="400" fill="#fff3e0" stroke="#f57c00" stroke-width="2" rx="10"/>
    <text x="700" y="120" text-anchor="middle" font-size="20" font-weight="bold">Repair Documentation (23)</text>
    
    <g font-size="13">
      <rect x="510" y="140" width="380" height="50" fill="#ffe0b2" stroke="#ff9800" rx="5"/>
      <text x="700" y="160" text-anchor="middle" font-weight="bold">Damage Discovery & Engineering (5)</text>
      <text x="520" y="180" font-size="11">DDR, Assessment, REO, Repair Drawing, SRM Deviation</text>
      
      <rect x="510" y="200" width="380" height="50" fill="#ffe0b2" stroke="#ff9800" rx="5"/>
      <text x="700" y="220" text-anchor="middle" font-weight="bold">Work Instruction & Task Cards (5)</text>
      <text x="520" y="240" font-size="11">RTC, Composite/Weld/Harness Repair, Software Patch</text>
      
      <rect x="510" y="260" width="380" height="50" fill="#ffe0b2" stroke="#ff9800" rx="5"/>
      <text x="700" y="280" text-anchor="middle" font-weight="bold">Quality & Inspection (4)</text>
      <text x="520" y="300" font-size="11">Process Inspection, NDT Report, Conformity, RQA Record</text>
      
      <rect x="510" y="320" width="380" height="50" fill="#ffe0b2" stroke="#ff9800" rx="5"/>
      <text x="700" y="340" text-anchor="middle" font-weight="bold">Materials, Parts & Costs (3)</text>
      <text x="520" y="360" font-size="11">Repair Kit Contents, Material Cert, Cost Estimate</text>
      
      <rect x="510" y="380" width="185" height="50" fill="#ffe0b2" stroke="#ff9800" rx="5"/>
      <text x="602" y="400" text-anchor="middle" font-weight="bold">Approval & RTS (3)</text>
      <text x="520" y="420" font-size="11">Form 1, Approval Log, RTS</text>
      
      <rect x="705" y="380" width="185" height="50" fill="#ffe0b2" stroke="#ff9800" rx="5"/>
      <text x="797" y="400" text-anchor="middle" font-weight="bold">Follow-Up (3)</text>
      <text x="715" y="420" font-size="11">Effectiveness, Lessons, Field</text>
    </g>
    
    <rect x="510" y="440" width="380" height="40" fill="#ffcc80" stroke="#ff9800" rx="5"/>
    <text x="700" y="465" text-anchor="middle" font-size="14" font-weight="bold">23 Repair Templates</text>
  </g>
  
  <!-- Restoration/Circular Economy Section (20 templates) -->
  <g id="restoration-docs-section">
    <rect x="940" y="90" width="420" height="400" fill="#e1f5fe" stroke="#0277bd" stroke-width="2" rx="10"/>
    <text x="1150" y="120" text-anchor="middle" font-size="20" font-weight="bold">Restoration/Circular Economy (20)</text>
    
    <g font-size="13">
      <rect x="960" y="140" width="185" height="60" fill="#b3e5fc" stroke="#0288d1" rx="5"/>
      <text x="1052" y="160" text-anchor="middle" font-weight="bold">Disassembly (3)</text>
      <text x="970" y="180" font-size="11">CDP, CRAF</text>
      <text x="970" y="195" font-size="11">Salvage Log</text>
      
      <rect x="1155" y="140" width="185" height="60" fill="#b3e5fc" stroke="#0288d1" rx="5"/>
      <text x="1247" y="160" text-anchor="middle" font-weight="bold">Cleaning (2)</text>
      <text x="1165" y="180" font-size="11">Decontamination</text>
      <text x="1165" y="195" font-size="11">Paint Removal</text>
      
      <rect x="960" y="210" width="185" height="60" fill="#b3e5fc" stroke="#0288d1" rx="5"/>
      <text x="1052" y="230" text-anchor="middle" font-weight="bold">Restoration Work (4)</text>
      <text x="970" y="250" font-size="11">RWIC, Remachining</text>
      <text x="970" y="265" font-size="11">Recure, Life Extension</text>
      
      <rect x="1155" y="210" width="185" height="60" fill="#b3e5fc" stroke="#0288d1" rx="5"/>
      <text x="1247" y="230" text-anchor="middle" font-weight="bold">Materials/Trace (3)</text>
      <text x="1165" y="250" font-size="11">Parts Grading, BOM</text>
      <text x="1165" y="265" font-size="11">Mat Revalidation</text>
      
      <rect x="960" y="280" width="185" height="60" fill="#b3e5fc" stroke="#0288d1" rx="5"/>
      <text x="1052" y="300" text-anchor="middle" font-weight="bold">Inspection/QA (3)</text>
      <text x="970" y="320" font-size="11">Restore Inspection</text>
      <text x="970" y="335" font-size="11">Requal, Overhaul Cert</text>
      
      <rect x="1155" y="280" width="185" height="60" fill="#b3e5fc" stroke="#0288d1" rx="5"/>
      <text x="1247" y="300" text-anchor="middle" font-weight="bold">Packaging (2)</text>
      <text x="1165" y="320" font-size="11">Repackaging Spec</text>
      <text x="1165" y="335" font-size="11">Inventory Entry</text>
      
      <rect x="960" y="350" width="380" height="60" fill="#b3e5fc" stroke="#0288d1" rx="5"/>
      <text x="1150" y="370" text-anchor="middle" font-weight="bold">Sustainability & Compliance (3)</text>
      <text x="970" y="390" font-size="11">Material Recovery, Circularity Matrix</text>
      <text x="970" y="405" font-size="11">Cost-Benefit Analysis</text>
    </g>
    
    <rect x="960" y="430" width="380" height="40" fill="#81d4fa" stroke="#0288d1" rx="5"/>
    <text x="1150" y="455" text-anchor="middle" font-size="14" font-weight="bold">20 Restoration Templates</text>
  </g>
  
  <!-- Integration Layer -->
  <g id="integration-layer">
    <rect x="40" y="510" width="1320" height="180" fill="#f3e5f5" stroke="#7b1fa2" stroke-width="2" rx="10"/>
    <text x="700" y="540" text-anchor="middle" font-size="22" font-weight="bold">Integration & Traceability Layer</text>
    
    <g font-size="14">
      <!-- Workflows -->
      <rect x="60" y="560" width="300" height="110" fill="#e1bee7" stroke="#8e24aa" rx="5"/>
      <text x="210" y="585" text-anchor="middle" font-weight="bold">Integrated Workflows</text>
      <text x="70" y="605" font-size="12">• Damage → Repair → RTS</text>
      <text x="70" y="625" font-size="12">• Design → Manufacture → Test</text>
      <text x="70" y="645" font-size="12">• End-of-Life → Restore → Recertify</text>
      <text x="70" y="665" font-size="12">• Requirements → Verification → Maintenance</text>
      
      <!-- Traceability -->
      <rect x="380" y="560" width="300" height="110" fill="#e1bee7" stroke="#8e24aa" rx="5"/>
      <text x="530" y="585" text-anchor="middle" font-weight="bold">Complete Traceability</text>
      <text x="390" y="605" font-size="12">• Requirements to Disposal</text>
      <text x="390" y="625" font-size="12">• Part Number to Documentation</text>
      <text x="390" y="645" font-size="12">• Repair History Tracking</text>
      <text x="390" y="665" font-size="12">• Component Life Monitoring</text>
      
      <!-- Digital Features -->
      <rect x="700" y="560" width="300" height="110" fill="#e1bee7" stroke="#8e24aa" rx="5"/>
      <text x="850" y="585" text-anchor="middle" font-weight="bold">Digital Transformation</text>
      <text x="710" y="605" font-size="12">• Quantum Signatures (All Docs)</text>
      <text x="710" y="625" font-size="12">• Blockchain Ready</text>
      <text x="710" y="645" font-size="12">• Digital Twin Integration</text>
      <text x="710" y="665" font-size="12">• AI/ML Compatible</text>
      
      <!-- Compliance -->
      <rect x="1020" y="560" width="320" height="110" fill="#e1bee7" stroke="#8e24aa" rx="5"/>
      <text x="1180" y="585" text-anchor="middle" font-weight="bold">Standards Compliance</text>
      <text x="1030" y="605" font-size="12">• S1000D Issue 5.0</text>
      <text x="1030" y="625" font-size="12">• ATA iSpec 2200, DO-178C/254</text>
      <text x="1030" y="645" font-size="12">• Part 145/21J, AS9100D</text>
      <text x="1030" y="665" font-size="12">• ISO 14040, EU Circular Economy</text>
    </g>
  </g>
  
  <!-- Q-Divisions -->
  <g id="q-divisions">
    <rect x="40" y="710" width="1320" height="120" fill="#fff9c4" stroke="#f9a825" stroke-width="2" rx="10"/>
    <text x="700" y="740" text-anchor="middle" font-size="20" font-weight="bold">Q-Division Ownership & Responsibility</text>
    
    <g font-size="12" text-anchor="middle">
      <text x="140" y="770">Q-AIR</text>
      <text x="140" y="785">Aerodynamics</text>
      <text x="140" y="800">Flight Control</text>
      
      <text x="280" y="770">Q-GREENTECH</text>
      <text x="280" y="785">Energy Systems</text>
      <text x="280" y="800">Sustainability</text>
      
      <text x="420" y="770">Q-STRUCTURES</text>
      <text x="420" y="785">Airframe</text>
      <text x="420" y="800">Materials</text>
      
      <text x="560" y="770">Q-HPC</text>
      <text x="560" y="785">Computing</text>
      <text x="560" y="800">Quantum/AI</text>
      
      <text x="700" y="770">Q-DATAGOV</text>
      <text x="700" y="785">Standards</text>
      <text x="700" y="800">Documentation</text>
      
      <text x="840" y="770">Q-INDUSTRY</text>
      <text x="840" y="785">Manufacturing</text>
      <text x="840" y="800">Assembly</text>
      
      <text x="980" y="770">Q-SPACE</text>
      <text x="980" y="785">Satellite</text>
      <text x="980" y="800">Communications</text>
      
      <text x="1120" y="770">Q-GROUND</text>
      <text x="1120" y="785">Support</text>
      <text x="1120" y="800">Maintenance</text>
      
      <text x="1260" y="770">Q-MECHANICS</text>
      <text x="1260" y="785">Systems</text>
      <text x="1260" y="800">Hydraulics</text>
      
      <text x="700" y="820" font-size="11">(Q-SCIRES: Research & Testing - Cross-functional support)</text>
    </g>
  </g>
  
  <!-- Summary Box -->
  <g id="summary">
    <rect x="40" y="850" width="1320" height="110" fill="#e8f5e9" stroke="#2e7d32" stroke-width="3" rx="10"/>
    <text x="700" y="880" text-anchor="middle" font-size="24" font-weight="bold">Complete GAIA-QAO Documentation System</text>
    <g font-size="16" text-anchor="middle">
      <text x="350" y="910" font-weight="bold">95 Total Templates</text>
      <text x="700" y="910" font-weight="bold">Full Lifecycle Coverage</text>
      <text x="1050" y="910" font-weight="bold">100% Traceable</text>
      <text x="350" y="935">Design → Build → Operate</text>
      <text x="700" y="935">Maintain → Repair → Restore</text>
      <text x="1050" y="935">Certify → Dispose → Recycle</text>
    </g>
  </g>
  
  <!-- Connections showing document flow -->
  <g stroke="#666" stroke-width="2" fill="none" stroke-dasharray="5,5">
    <!-- Tech Docs to Repair -->
    <path d="M 460 290 L 490 290" marker-end="url(#arrowhead)"/>
    <!-- Repair to Restoration -->
    <path d="M 910 290 L 940 290" marker-end="url(#arrowhead)"/>
    <!-- All to Integration -->
    <path d="M 250 490 L 250 510" marker-end="url(#arrowhead)"/>
    <path d="M 700 490 L 700 510" marker-end="url(#arrowhead)"/>
    <path d="M 1150 490 L 1150 510" marker-end="url(#arrowhead)"/>
    <!-- Integration to Q-Divisions -->
    <path d="M 700 690 L 700 710" marker-end="url(#arrowhead)"/>
  </g>
  
  <!-- Arrow marker -->
  <defs>
    <marker id="arrowhead" markerWidth="10" markerHeight="7" refX="9" refY="3.5" orient="auto">
      <polygon points="0 0, 10 3.5, 0 7" fill="#666"/>
    </marker>
  </defs>
</svg>
